<svg xmlns="http://www.w3.org/2000/svg" xmlns:svg="http://www.w3.org/2000/svg" id="svg8109" width="48" height="48" fill="#000" enable-background="new 0 0 20 20" version="1.1" viewBox="0 0 20 20"><g id="g8099"><rect id="rect8097" width="20" height="20" x="0" y="0" fill="none"/></g><g id="g8107" style="fill:#ff4d6d;fill-opacity:1"><g id="g8105" style="fill:#ff4d6d;fill-opacity:1"><path id="path8101" d="M 2.5,5 H 1 V 15.5 C 1,16.33 1.67,17 2.5,17 H 15.68 V 15.5 H 2.5 Z" style="fill:#ff4d6d;fill-opacity:1"/><path id="path8103" d="M 16.5,4 H 11 L 9,2 H 5.5 C 4.67,2 4,2.67 4,3.5 v 9 C 4,13.33 4.67,14 5.5,14 h 11 c 0.83,0 1.5,-0.67 1.5,-1.5 v -7 C 18,4.67 17.33,4 16.5,4 Z m 0,8.5 h -11 v -9 h 2.88 l 2,2 h 6.12 z" style="fill:#ff4d6d;fill-opacity:1"/></g></g></svg>